{
	"asset":{
		"generator":"Khronos glTF Blender I/O v4.0.44",
		"version":"2.0"
	},
	"extensionsUsed":[
		"KHR_materials_transmission",
		"KHR_materials_ior"
	],
	"scene":0,
	"scenes":[
		{
			"name":"Scene",
			"nodes":[
				9
			]
		}
	],
	"nodes":[
		{
			"mesh":0,
			"name":"ear_bone",
			"rotation":[
				0.5,
				0.5,
				-0.5,
				0.5
			],
			"scale":[
				2.2350056171417236,
				2.2350056171417236,
				2.2350056171417236
			],
			"translation":[
				0,
				0.0022385120391845703,
				0.002557516098022461
			]
		},
		{
			"children":[
				0
			],
			"name":"bone 2",
			"rotation":[
				0,
				-0.7071068286895752,
				0,
				0.7071068286895752
			],
			"scale":[
				0.006899271626025438,
				0.006899271626025438,
				0.006899271626025438
			],
			"translation":[
				0.014195378869771957,
				0.005232292227447033,
				0.010372161865234375
			]
		},
		{
			"mesh":1,
			"name":"model_4",
			"rotation":[
				0.5,
				0.5,
				-0.5,
				0.5
			],
			"scale":[
				5.367655277252197,
				5.367655277252197,
				5.367655277252197
			]
		},
		{
			"children":[
				2
			],
			"name":"cochlea",
			"rotation":[
				0,
				-0.7071068286895752,
				0,
				0.7071068286895752
			],
			"scale":[
				0.002872746204957366,
				0.002872746204957366,
				0.002872746204957366
			],
			"translation":[
				0.011213105171918869,
				0.00358393881469965,
				0.009853622876107693
			]
		},
		{
			"mesh":2,
			"name":"model_3",
			"rotation":[
				0.5,
				0.5,
				-0.5,
				0.5
			],
			"scale":[
				5.98566198348999,
				5.98566198348999,
				5.98566198348999
			]
		},
		{
			"children":[
				4
			],
			"name":"Ossicles",
			"rotation":[
				0,
				-0.7071068286895752,
				0,
				0.7071068286895752
			],
			"scale":[
				0.002576140919700265,
				0.002576140919700265,
				0.002576140919700265
			],
			"translation":[
				0.005031020846217871,
				0.00393599271774292,
				0.007865536026656628
			]
		},
		{
			"mesh":3,
			"name":"outerEar",
			"rotation":[
				0.7071068286895752,
				0,
				0,
				0.7071068286895752
			],
			"scale":[
				0.015419910661876202,
				0.015419910661876202,
				0.015419910661876202
			]
		},
		{
			"mesh":4,
			"name":"ear vibration",
			"rotation":[
				0.5,
				0.5,
				-0.5,
				0.5
			],
			"scale":[
				2.731337308883667,
				2.731337308883667,
				2.731337308883667
			]
		},
		{
			"children":[
				7
			],
			"name":"Tympanic Membrane",
			"rotation":[
				0,
				-0.7071068286895752,
				0,
				0.7071068286895752
			],
			"scale":[
				0.005645553581416607,
				0.005645553581416607,
				0.005645553581416607
			],
			"translation":[
				0.0007778851431794465,
				0.004323222674429417,
				0.00485687330365181
			]
		},
		{
			"children":[
				1,
				3,
				5,
				6,
				8
			],
			"name":"Main Ear",
			"rotation":[
				0,
				0.7071068286895752,
				0,
				0.7071068286895752
			],
			"scale":[
				39.41974639892578,
				39.41974639892578,
				39.41974639892578
			],
			"translation":[
				-0.05252327769994736,
				0.4053376317024231,
				1.3892724514007568
			]
		}
	],
	"animations":[
		{
			"channels":[
				{
					"sampler":0,
					"target":{
						"node":0,
						"path":"translation"
					}
				}
			],
			"name":"model_1Action.002",
			"samplers":[
				{
					"input":20,
					"interpolation":"LINEAR",
					"output":21
				}
			]
		},
		{
			"channels":[
				{
					"sampler":0,
					"target":{
						"node":3,
						"path":"translation"
					}
				}
			],
			"name":"cochleaAction.001",
			"samplers":[
				{
					"input":22,
					"interpolation":"LINEAR",
					"output":23
				}
			]
		},
		{
			"channels":[
				{
					"sampler":0,
					"target":{
						"node":5,
						"path":"translation"
					}
				}
			],
			"name":"OssiclesAction.001",
			"samplers":[
				{
					"input":24,
					"interpolation":"LINEAR",
					"output":25
				}
			]
		},
		{
			"channels":[
				{
					"sampler":0,
					"target":{
						"node":8,
						"path":"translation"
					}
				}
			],
			"name":"Tympanic MembraneAction",
			"samplers":[
				{
					"input":26,
					"interpolation":"LINEAR",
					"output":27
				}
			]
		}
	],
	"materials":[
		{
			"doubleSided":true,
			"name":"Material.004",
			"normalTexture":{
				"index":0,
				"scale":1.5999999046325684
			},
			"pbrMetallicRoughness":{
				"baseColorTexture":{
					"index":1
				},
				"metallicFactor":0,
				"roughnessFactor":0.8236363530158997
			}
		},
		{
			"doubleSided":true,
			"extensions":{
				"KHR_materials_transmission":{
					"transmissionFactor":0.18545454740524292
				},
				"KHR_materials_ior":{
					"ior":1
				}
			},
			"name":"Material.003",
			"normalTexture":{
				"index":2,
				"scale":0.30000007152557373
			},
			"pbrMetallicRoughness":{
				"baseColorTexture":{
					"index":3
				},
				"metallicFactor":0.3272727131843567,
				"roughnessFactor":0.42000001668930054
			}
		},
		{
			"doubleSided":true,
			"name":"Material.005",
			"normalTexture":{
				"index":4
			},
			"pbrMetallicRoughness":{
				"baseColorTexture":{
					"index":5
				},
				"metallicFactor":0,
				"roughnessFactor":0.5
			}
		},
		{
			"doubleSided":true,
			"name":"Material.001",
			"normalTexture":{
				"index":6,
				"scale":2.0999999046325684
			},
			"pbrMetallicRoughness":{
				"baseColorTexture":{
					"index":7
				},
				"metallicFactor":0.22545453906059265,
				"roughnessFactor":0.6163636445999146
			}
		},
		{
			"doubleSided":true,
			"extensions":{
				"KHR_materials_transmission":{
					"transmissionFactor":0.1563636064529419
				},
				"KHR_materials_ior":{
					"ior":1.4500000476837158
				}
			},
			"name":"Material.002",
			"normalTexture":{
				"index":8
			},
			"pbrMetallicRoughness":{
				"baseColorTexture":{
					"index":9
				},
				"metallicFactor":0,
				"roughnessFactor":0.5581818222999573
			}
		}
	],
	"meshes":[
		{
			"name":"model_1",
			"primitives":[
				{
					"attributes":{
						"POSITION":0,
						"NORMAL":1,
						"TEXCOORD_0":2
					},
					"indices":3,
					"material":0
				}
			]
		},
		{
			"name":"model_4",
			"primitives":[
				{
					"attributes":{
						"POSITION":4,
						"NORMAL":5,
						"TEXCOORD_0":6
					},
					"indices":7,
					"material":1
				}
			]
		},
		{
			"name":"model_3",
			"primitives":[
				{
					"attributes":{
						"POSITION":8,
						"NORMAL":9,
						"TEXCOORD_0":10
					},
					"indices":11,
					"material":2
				}
			]
		},
		{
			"name":"model_0",
			"primitives":[
				{
					"attributes":{
						"POSITION":12,
						"NORMAL":13,
						"TEXCOORD_0":14
					},
					"indices":15,
					"material":3
				}
			]
		},
		{
			"name":"model_2",
			"primitives":[
				{
					"attributes":{
						"POSITION":16,
						"NORMAL":17,
						"TEXCOORD_0":18
					},
					"indices":19,
					"material":4
				}
			]
		}
	],
	"textures":[
		{
			"sampler":0,
			"source":0
		},
		{
			"sampler":0,
			"source":1
		},
		{
			"sampler":0,
			"source":2
		},
		{
			"sampler":0,
			"source":3
		},
		{
			"sampler":0,
			"source":4
		},
		{
			"sampler":0,
			"source":5
		},
		{
			"sampler":0,
			"source":6
		},
		{
			"sampler":0,
			"source":7
		},
		{
			"sampler":0,
			"source":8
		},
		{
			"sampler":1,
			"source":9
		}
	],
	"images":[
		{
			"mimeType":"image/png",
			"name":"Vestibulocochlear_nerve-NM",
			"uri":"Vestibulocochlear_nerve-NM.png"
		},
		{
			"mimeType":"image/png",
			"name":"Vestibulocochlear_nerve-TM",
			"uri":"Vestibulocochlear_nerve-TM.png"
		},
		{
			"mimeType":"image/png",
			"name":"Labirynth-NM",
			"uri":"Labirynth-NM.png"
		},
		{
			"mimeType":"image/png",
			"name":"Labirynth-TM",
			"uri":"Labirynth-TM.png"
		},
		{
			"mimeType":"image/png",
			"name":"Ossicles-NM",
			"uri":"Ossicles-NM.png"
		},
		{
			"mimeType":"image/png",
			"name":"Ossicles-TM",
			"uri":"Ossicles-TM.png"
		},
		{
			"mimeType":"image/png",
			"name":"Ear-NM",
			"uri":"Ear-NM.png"
		},
		{
			"mimeType":"image/png",
			"name":"Ear-TM",
			"uri":"Ear-TM.png"
		},
		{
			"mimeType":"image/png",
			"name":"Tympanic_membrane-NM",
			"uri":"Tympanic_membrane-NM.png"
		},
		{
			"mimeType":"image/png",
			"name":"Tympanic_membrane-TM",
			"uri":"Tympanic_membrane-TM.png"
		}
	],
	"accessors":[
		{
			"bufferView":0,
			"componentType":5126,
			"count":2811,
			"max":[
				0.5187060236930847,
				0.31673336029052734,
				0.11801338195800781
			],
			"min":[
				-0.3908141851425171,
				-0.36368656158447266,
				-0.1185159683227539
			],
			"type":"VEC3"
		},
		{
			"bufferView":1,
			"componentType":5126,
			"count":2811,
			"type":"VEC3"
		},
		{
			"bufferView":2,
			"componentType":5126,
			"count":2811,
			"type":"VEC2"
		},
		{
			"bufferView":3,
			"componentType":5123,
			"count":15414,
			"type":"SCALAR"
		},
		{
			"bufferView":4,
			"componentType":5126,
			"count":3138,
			"max":[
				0.40087902545928955,
				0.409498929977417,
				0.3911170959472656
			],
			"min":[
				-0.4774312973022461,
				-0.4649815559387207,
				-0.5199718475341797
			],
			"type":"VEC3"
		},
		{
			"bufferView":5,
			"componentType":5126,
			"count":3138,
			"type":"VEC3"
		},
		{
			"bufferView":6,
			"componentType":5126,
			"count":3138,
			"type":"VEC2"
		},
		{
			"bufferView":7,
			"componentType":5123,
			"count":17760,
			"type":"SCALAR"
		},
		{
			"bufferView":8,
			"componentType":5126,
			"count":3429,
			"max":[
				0.30775511264801025,
				0.14061665534973145,
				0.10814857482910156
			],
			"min":[
				-0.2166147232055664,
				-0.17362236976623535,
				-0.14933204650878906
			],
			"type":"VEC3"
		},
		{
			"bufferView":9,
			"componentType":5126,
			"count":3429,
			"type":"VEC3"
		},
		{
			"bufferView":10,
			"componentType":5126,
			"count":3429,
			"type":"VEC2"
		},
		{
			"bufferView":11,
			"componentType":5123,
			"count":19254,
			"type":"SCALAR"
		},
		{
			"bufferView":12,
			"componentType":5126,
			"count":23607,
			"max":[
				1.6693044900894165,
				1.8889710903167725,
				2.018191337585449
			],
			"min":[
				-1.7554367780685425,
				-1.9319889545440674,
				-2.0724077224731445
			],
			"type":"VEC3"
		},
		{
			"bufferView":13,
			"componentType":5126,
			"count":23607,
			"type":"VEC3"
		},
		{
			"bufferView":14,
			"componentType":5126,
			"count":23607,
			"type":"VEC2"
		},
		{
			"bufferView":15,
			"componentType":5123,
			"count":139056,
			"type":"SCALAR"
		},
		{
			"bufferView":16,
			"componentType":5126,
			"count":880,
			"max":[
				0.09261512756347656,
				0.20058751106262207,
				0.2034616470336914
			],
			"min":[
				-0.08270490169525146,
				-0.21268320083618164,
				-0.2198190689086914
			],
			"type":"VEC3"
		},
		{
			"bufferView":17,
			"componentType":5126,
			"count":880,
			"type":"VEC3"
		},
		{
			"bufferView":18,
			"componentType":5126,
			"count":880,
			"type":"VEC2"
		},
		{
			"bufferView":19,
			"componentType":5123,
			"count":5046,
			"type":"SCALAR"
		},
		{
			"bufferView":20,
			"componentType":5126,
			"count":12,
			"max":[
				8.791666666666666
			],
			"min":[
				8.333333333333334
			],
			"type":"SCALAR"
		},
		{
			"bufferView":21,
			"componentType":5126,
			"count":12,
			"type":"VEC3"
		},
		{
			"bufferView":22,
			"componentType":5126,
			"count":79,
			"max":[
				10
			],
			"min":[
				6.75
			],
			"type":"SCALAR"
		},
		{
			"bufferView":23,
			"componentType":5126,
			"count":79,
			"type":"VEC3"
		},
		{
			"bufferView":24,
			"componentType":5126,
			"count":1,
			"max":[
				2.5
			],
			"min":[
				2.5
			],
			"type":"SCALAR"
		},
		{
			"bufferView":25,
			"componentType":5126,
			"count":1,
			"type":"VEC3"
		},
		{
			"bufferView":26,
			"componentType":5126,
			"count":10,
			"max":[
				0.4166666666666667
			],
			"min":[
				0.041666666666666664
			],
			"type":"SCALAR"
		},
		{
			"bufferView":27,
			"componentType":5126,
			"count":10,
			"type":"VEC3"
		}
	],
	"bufferViews":[
		{
			"buffer":0,
			"byteLength":33732,
			"byteOffset":0,
			"target":34962
		},
		{
			"buffer":0,
			"byteLength":33732,
			"byteOffset":33732,
			"target":34962
		},
		{
			"buffer":0,
			"byteLength":22488,
			"byteOffset":67464,
			"target":34962
		},
		{
			"buffer":0,
			"byteLength":30828,
			"byteOffset":89952,
			"target":34963
		},
		{
			"buffer":0,
			"byteLength":37656,
			"byteOffset":120780,
			"target":34962
		},
		{
			"buffer":0,
			"byteLength":37656,
			"byteOffset":158436,
			"target":34962
		},
		{
			"buffer":0,
			"byteLength":25104,
			"byteOffset":196092,
			"target":34962
		},
		{
			"buffer":0,
			"byteLength":35520,
			"byteOffset":221196,
			"target":34963
		},
		{
			"buffer":0,
			"byteLength":41148,
			"byteOffset":256716,
			"target":34962
		},
		{
			"buffer":0,
			"byteLength":41148,
			"byteOffset":297864,
			"target":34962
		},
		{
			"buffer":0,
			"byteLength":27432,
			"byteOffset":339012,
			"target":34962
		},
		{
			"buffer":0,
			"byteLength":38508,
			"byteOffset":366444,
			"target":34963
		},
		{
			"buffer":0,
			"byteLength":283284,
			"byteOffset":404952,
			"target":34962
		},
		{
			"buffer":0,
			"byteLength":283284,
			"byteOffset":688236,
			"target":34962
		},
		{
			"buffer":0,
			"byteLength":188856,
			"byteOffset":971520,
			"target":34962
		},
		{
			"buffer":0,
			"byteLength":278112,
			"byteOffset":1160376,
			"target":34963
		},
		{
			"buffer":0,
			"byteLength":10560,
			"byteOffset":1438488,
			"target":34962
		},
		{
			"buffer":0,
			"byteLength":10560,
			"byteOffset":1449048,
			"target":34962
		},
		{
			"buffer":0,
			"byteLength":7040,
			"byteOffset":1459608,
			"target":34962
		},
		{
			"buffer":0,
			"byteLength":10092,
			"byteOffset":1466648,
			"target":34963
		},
		{
			"buffer":0,
			"byteLength":48,
			"byteOffset":1476740
		},
		{
			"buffer":0,
			"byteLength":144,
			"byteOffset":1476788
		},
		{
			"buffer":0,
			"byteLength":316,
			"byteOffset":1476932
		},
		{
			"buffer":0,
			"byteLength":948,
			"byteOffset":1477248
		},
		{
			"buffer":0,
			"byteLength":4,
			"byteOffset":1478196
		},
		{
			"buffer":0,
			"byteLength":12,
			"byteOffset":1478200
		},
		{
			"buffer":0,
			"byteLength":40,
			"byteOffset":1478212
		},
		{
			"buffer":0,
			"byteLength":120,
			"byteOffset":1478252
		}
	],
	"samplers":[
		{
			"magFilter":9729,
			"minFilter":9987
		},
		{
			"magFilter":9728,
			"minFilter":9984
		}
	],
	"buffers":[
		{
			"byteLength":1478372,
			"uri":"ear.bin"
		}
	]
}
